<svg width="650" height="555" xmlns="http://www.w3.org/2000/svg" xmlns:xlink="http://www.w3.org/1999/xlink" xml:space="preserve" overflow="hidden">
<style>
    path {
        fill: black;
    }
    @media (prefers-color-scheme: dark) {
        path {
            fill: white;
        }
    }
</style>
<defs><clipPath id="clip0"><rect x="328" y="109" width="650" height="555"/></clipPath><clipPath id="clip1"><rect x="328" y="109" width="650" height="555"/></clipPath><clipPath id="clip2"><rect x="329" y="110" width="649" height="553"/></clipPath><clipPath id="clip3"><rect x="328" y="109" width="650" height="554"/></clipPath></defs><g clip-path="url(#clip0)" transform="translate(-328 -109)"><g clip-path="url(#clip1)"><g clip-path="url(#clip2)"><g clip-path="url(#clip3)"><path d="M1438.77 1072.07 1536.4 1100.31 1307.58 1190.3 1078.35 1101.52 1182.16 1071.46" stroke="#046244" stroke-width="8.56439" stroke-linecap="butt" stroke-linejoin="round" stroke-miterlimit="4" stroke-opacity="1" fill="none" fill-rule="nonzero" transform="matrix(1.00015 0 0 1 -664.845 -817.725)"/><path d="M1078.21 1101.5 1307.56 1190.62 1224.44 1324.69 1000.06 1226.62 1078.21 1101.5Z" stroke="#046244" stroke-width="8.56439" stroke-linecap="butt" stroke-linejoin="round" stroke-miterlimit="4" stroke-opacity="1" fill="none" fill-rule="nonzero" transform="matrix(1.00015 0 0 1 -664.845 -817.725)"/><path d="M1307.33 1190.32 1535.99 1099.9 1637.29 1226.22 1407.66 1331.15 1307.33 1190.32Z" stroke="#046244" stroke-width="8.56439" stroke-linecap="butt" stroke-linejoin="round" stroke-miterlimit="4" stroke-opacity="1" fill="none" fill-rule="nonzero" transform="matrix(1.00015 0 0 1 -664.845 -817.725)"/><path d="M1306.68 1190.73 1306.68 1474.87 1092.04 1402.74 1092.7 1267.28" stroke="#046244" stroke-width="8.56439" stroke-linecap="butt" stroke-linejoin="round" stroke-miterlimit="4" stroke-opacity="1" fill="none" fill-rule="nonzero" transform="matrix(1.00015 0 0 1 -664.845 -817.725)"/><path d="M1534.01 1273.38 1530.05 1382.91 1307.72 1474.65" stroke="#046244" stroke-width="8.56439" stroke-linecap="butt" stroke-linejoin="round" stroke-miterlimit="4" stroke-opacity="1" fill="none" fill-rule="nonzero" transform="matrix(1.00015 0 0 1 -664.845 -817.725)"/><path d="M1182.76 1140.68 1182.6 965.494" stroke="#696969" stroke-width="8.56439" stroke-linecap="butt" stroke-linejoin="round" stroke-miterlimit="4" stroke-opacity="1" fill="none" fill-rule="nonzero" transform="matrix(1.00015 0 0 1 -664.845 -817.725)"/><path d="M1438.94 965.494 1438.94 1138.66" stroke="#696969" stroke-width="8.56439" stroke-linecap="butt" stroke-linejoin="round" stroke-miterlimit="4" stroke-opacity="1" fill="none" fill-rule="nonzero" transform="matrix(1.00015 0 0 1 -664.845 -817.725)"/><path d="M1213.44 935.283 1409.16 935.497" stroke="#696969" stroke-width="8.56439" stroke-linecap="butt" stroke-linejoin="round" stroke-miterlimit="4" stroke-opacity="1" fill="none" fill-rule="nonzero" transform="matrix(1.00015 0 0 1 -664.845 -817.725)"/><path d="M1408.59 935.514C1422.08 935.514 1438.96 956.964 1438.96 966.055" stroke="#696969" stroke-width="8.56439" stroke-linecap="butt" stroke-linejoin="round" stroke-miterlimit="4" stroke-opacity="1" fill="none" fill-rule="nonzero" transform="matrix(1.00015 0 0 1 -664.845 -817.725)"/><path d="M1214.04 935.244C1200.54 935.244 1182.62 956.664 1182.62 965.755" stroke="#696969" stroke-width="8.56439" stroke-linecap="butt" stroke-linejoin="round" stroke-miterlimit="4" stroke-opacity="1" fill="none" fill-rule="nonzero" transform="matrix(1.00015 0 0 1 -664.845 -817.725)"/><path d="M1338.54 968.419 1281.11 968.419" stroke="#696969" stroke-width="8.56439" stroke-linecap="butt" stroke-linejoin="round" stroke-miterlimit="4" stroke-opacity="1" fill="none" fill-rule="nonzero" transform="matrix(1.00015 0 0 1 -664.845 -817.725)"/><path d="M1281.11 949.808 1338.54 949.808" stroke="#696969" stroke-width="8.56439" stroke-linecap="butt" stroke-linejoin="round" stroke-miterlimit="4" stroke-opacity="1" fill="none" fill-rule="nonzero" transform="matrix(1.00015 0 0 1 -664.845 -817.725)"/><path d="M1281.22 968.312C1276.99 968.312 1273.35 963.67 1273.35 959.379 1273.35 955.092 1278.27 949.808 1282.5 949.808" stroke="#696969" stroke-width="8.56439" stroke-linecap="butt" stroke-linejoin="round" stroke-miterlimit="4" stroke-opacity="1" fill="none" fill-rule="nonzero" transform="matrix(1.00015 0 0 1 -664.845 -817.725)"/><path d="M1338.05 968.397C1342.28 968.397 1345.78 963.019 1345.78 958.728 1345.78 954.442 1342.55 949.825 1338.32 949.825" stroke="#696969" stroke-width="8.56439" stroke-linecap="butt" stroke-linejoin="round" stroke-miterlimit="4" stroke-opacity="1" fill="none" fill-rule="nonzero" transform="matrix(1.00015 0 0 1 -664.845 -817.725)"/><path d="M1259.38 1051.3 1291.83 1083.75 1364.96 1009.02 1387.82 1031.87 1291.37 1127.86 1237.44 1074.61 1259.38 1051.3Z" fill="#FFC233" fill-rule="nonzero" fill-opacity="1" transform="matrix(1.00015 0 0 1 -664.845 -817.725)"/><text fill="#046244" fill-opacity="1" font-family="Calibri,Calibri_MSFontService,sans-serif" font-style="normal" font-variant="normal" font-weight="700" font-stretch="normal" font-size="24" text-anchor="start" direction="ltr" writing-mode="lr-tb" unicode-bidi="normal" text-decoration="none" transform="matrix(4.28285 0 0 4.2822 486.979 772)">TickBox</text></g></g></g></g></svg>