<svg width="3822" height="1183" xmlns="http://www.w3.org/2000/svg" xmlns:xlink="http://www.w3.org/1999/xlink" xml:space="preserve" overflow="hidden"><defs><clipPath id="clip0"><rect x="426" y="687" width="3822" height="1183"/></clipPath><clipPath id="clip1"><rect x="426" y="687" width="3822" height="1183"/></clipPath><clipPath id="clip2"><rect x="427" y="687" width="1292" height="1101"/></clipPath><clipPath id="clip3"><rect x="427" y="687" width="1292" height="1101"/></clipPath></defs><g clip-path="url(#clip0)" transform="translate(-426 -687)"><g clip-path="url(#clip1)"><g clip-path="url(#clip2)"><g clip-path="url(#clip3)"><g><path d="M2860.25 2131.26 3054.32 2187.39 2599.44 2366.29 2143.74 2189.79 2350.1 2130.03" stroke="#046244" stroke-width="17.0258" stroke-linecap="butt" stroke-linejoin="round" stroke-miterlimit="4" stroke-opacity="1" fill="none" fill-rule="nonzero" transform="matrix(1 0 0 1.00059 -1547.44 -1157.38)"/><path d="M2143.47 2189.75 2599.4 2366.93 2434.17 2633.45 1988.1 2438.5 2143.47 2189.75Z" stroke="#046244" stroke-width="17.0258" stroke-linecap="butt" stroke-linejoin="round" stroke-miterlimit="4" stroke-opacity="1" fill="none" fill-rule="nonzero" transform="matrix(1 0 0 1.00059 -1547.44 -1157.38)"/><path d="M2598.94 2366.33 3053.52 2186.58 3254.9 2437.7 2798.4 2646.29 2598.94 2366.33Z" stroke="#046244" stroke-width="17.0258" stroke-linecap="butt" stroke-linejoin="round" stroke-miterlimit="4" stroke-opacity="1" fill="none" fill-rule="nonzero" transform="matrix(1 0 0 1.00059 -1547.44 -1157.38)"/><path d="M2597.66 2367.15 2597.66 2932.01 2170.96 2788.61 2172.26 2519.32" stroke="#046244" stroke-width="17.0258" stroke-linecap="butt" stroke-linejoin="round" stroke-miterlimit="4" stroke-opacity="1" fill="none" fill-rule="nonzero" transform="matrix(1 0 0 1.00059 -1547.44 -1157.38)"/><path d="M3049.58 2531.46 3041.72 2749.19 2599.72 2931.58" stroke="#046244" stroke-width="17.0258" stroke-linecap="butt" stroke-linejoin="round" stroke-miterlimit="4" stroke-opacity="1" fill="none" fill-rule="nonzero" transform="matrix(1 0 0 1.00059 -1547.44 -1157.38)"/><path d="M2351.29 2267.64 2350.98 1919.38" stroke="#696969" stroke-width="17.0258" stroke-linecap="butt" stroke-linejoin="round" stroke-miterlimit="4" stroke-opacity="1" fill="none" fill-rule="nonzero" transform="matrix(1 0 0 1.00059 -1547.44 -1157.38)"/><path d="M2860.59 1919.38 2860.59 2263.64" stroke="#696969" stroke-width="17.0258" stroke-linecap="butt" stroke-linejoin="round" stroke-miterlimit="4" stroke-opacity="1" fill="none" fill-rule="nonzero" transform="matrix(1 0 0 1.00059 -1547.44 -1157.38)"/><path d="M2412.3 1859.32 2801.38 1859.75" stroke="#696969" stroke-width="17.0258" stroke-linecap="butt" stroke-linejoin="round" stroke-miterlimit="4" stroke-opacity="1" fill="none" fill-rule="nonzero" transform="matrix(1 0 0 1.00059 -1547.44 -1157.38)"/><path d="M2800.24 1859.78C2827.07 1859.78 2860.62 1902.42 2860.62 1920.5" stroke="#696969" stroke-width="17.0258" stroke-linecap="butt" stroke-linejoin="round" stroke-miterlimit="4" stroke-opacity="1" fill="none" fill-rule="nonzero" transform="matrix(1 0 0 1.00059 -1547.44 -1157.38)"/><path d="M2413.49 1859.25C2386.65 1859.25 2351.02 1901.83 2351.02 1919.9" stroke="#696969" stroke-width="17.0258" stroke-linecap="butt" stroke-linejoin="round" stroke-miterlimit="4" stroke-opacity="1" fill="none" fill-rule="nonzero" transform="matrix(1 0 0 1.00059 -1547.44 -1157.38)"/><path d="M2660.99 1925.2 2546.83 1925.2" stroke="#696969" stroke-width="17.0258" stroke-linecap="butt" stroke-linejoin="round" stroke-miterlimit="4" stroke-opacity="1" fill="none" fill-rule="nonzero" transform="matrix(1 0 0 1.00059 -1547.44 -1157.38)"/><path d="M2546.83 1888.2 2660.99 1888.2" stroke="#696969" stroke-width="17.0258" stroke-linecap="butt" stroke-linejoin="round" stroke-miterlimit="4" stroke-opacity="1" fill="none" fill-rule="nonzero" transform="matrix(1 0 0 1.00059 -1547.44 -1157.38)"/><path d="M2547.04 1924.98C2538.63 1924.98 2531.39 1915.75 2531.39 1907.22 2531.39 1898.7 2541.16 1888.2 2549.58 1888.2" stroke="#696969" stroke-width="17.0258" stroke-linecap="butt" stroke-linejoin="round" stroke-miterlimit="4" stroke-opacity="1" fill="none" fill-rule="nonzero" transform="matrix(1 0 0 1.00059 -1547.44 -1157.38)"/><path d="M2660 1925.15C2668.42 1925.15 2675.39 1914.46 2675.39 1905.93 2675.39 1897.41 2668.96 1888.23 2660.55 1888.23" stroke="#696969" stroke-width="17.0258" stroke-linecap="butt" stroke-linejoin="round" stroke-miterlimit="4" stroke-opacity="1" fill="none" fill-rule="nonzero" transform="matrix(1 0 0 1.00059 -1547.44 -1157.38)"/><path d="M2503.61 2089.95 2568.13 2154.47 2713.52 2005.91 2758.95 2051.34 2567.22 2242.16 2460 2136.3 2503.61 2089.95Z" fill="#FFC233" fill-rule="nonzero" fill-opacity="1" transform="matrix(1 0 0 1.00059 -1547.44 -1157.38)"/><text fill="#046244" fill-opacity="1" font-family="Calibri,Calibri_MSFontService,sans-serif" font-style="normal" font-variant="normal" font-weight="700" font-stretch="normal" font-size="24" text-anchor="start" direction="ltr" writing-mode="lr-tb" unicode-bidi="normal" text-decoration="none" transform="matrix(8.51291 0 0 8.51793 742.011 2005)">TickBox</text></g></g></g><text fill="#076244" fill-opacity="1" font-family="Work Sans SemiBold,Work Sans SemiBold_MSFontService,sans-serif" font-style="normal" font-variant="normal" font-weight="600" font-stretch="normal" font-size="527" text-anchor="start" direction="ltr" writing-mode="lr-tb" unicode-bidi="normal" text-decoration="none" transform="matrix(1 0 0 1 1861.98 1419)">TickBo</text><text fill="#076244" fill-opacity="1" font-family="Work Sans SemiBold,Work Sans SemiBold_MSFontService,sans-serif" font-style="normal" font-variant="normal" font-weight="600" font-stretch="normal" font-size="527" text-anchor="start" direction="ltr" writing-mode="lr-tb" unicode-bidi="normal" text-decoration="none" transform="matrix(1 0 0 1 3629.43 1419)">x</text></g></g></svg>